<?xml version="1.0" encoding="UTF-8" standalone="no"?>
<!DOCTYPE svg PUBLIC "-//W3C//DTD SVG 1.1//EN"
 "http://www.w3.org/Graphics/SVG/1.1/DTD/svg11.dtd">
<!-- Generated by graphviz version 2.42.4 (0)
 -->
<!-- Title: G Pages: 1 -->
<svg width="802pt" height="314pt"
 viewBox="0.00 0.00 802.00 314.00" xmlns="http://www.w3.org/2000/svg" xmlns:xlink="http://www.w3.org/1999/xlink">
<g id="graph0" class="graph" transform="scale(1 1) rotate(0) translate(4 310)">
<title>G</title>
<polygon fill="white" stroke="transparent" points="-4,4 -4,-310 798,-310 798,4 -4,4"/>
<!-- data.aws_ami.debian -->
<g id="node1" class="node">
<title>data.aws_ami.debian</title>
<polygon fill="none" stroke="black" points="311.5,-198 158.5,-198 158.5,-162 311.5,-162 311.5,-198"/>
<text text-anchor="middle" x="235" y="-176.3" font-family="sans-serif" font-size="14.00">data.aws_ami.debian</text>
</g>
<!-- aws_eip.master -->
<g id="node2" class="node">
<title>aws_eip.master</title>
<polygon fill="none" stroke="black" points="511,-198 392,-198 392,-162 511,-162 511,-198"/>
<text text-anchor="middle" x="451.5" y="-176.3" font-family="sans-serif" font-size="14.00">aws_eip.master</text>
</g>
<!-- aws_eip_association.master -->
<g id="node3" class="node">
<title>aws_eip_association.master</title>
<polygon fill="none" stroke="black" points="778.5,-198 580.5,-198 580.5,-162 778.5,-162 778.5,-198"/>
<text text-anchor="middle" x="679.5" y="-176.3" font-family="sans-serif" font-size="14.00">aws_eip_association.master</text>
</g>
<!-- aws_eip_association.master&#45;&gt;aws_eip.master -->
<g id="edge1" class="edge">
<title>aws_eip_association.master&#45;&gt;aws_eip.master</title>
<path fill="none" stroke="black" d="M580.36,-180C560.46,-180 539.93,-180 521.31,-180"/>
<polygon fill="black" stroke="black" points="521.17,-176.5 511.17,-180 521.17,-183.5 521.17,-176.5"/>
</g>
<!-- aws_instance.master -->
<g id="node4" class="node">
<title>aws_instance.master</title>
<polygon fill="none" stroke="black" points="529,-144 374,-144 374,-108 529,-108 529,-144"/>
<text text-anchor="middle" x="451.5" y="-122.3" font-family="sans-serif" font-size="14.00">aws_instance.master</text>
</g>
<!-- aws_eip_association.master&#45;&gt;aws_instance.master -->
<g id="edge2" class="edge">
<title>aws_eip_association.master&#45;&gt;aws_instance.master</title>
<path fill="none" stroke="black" d="M602.48,-161.94C589.96,-158.96 577.12,-155.89 565,-153 556.01,-150.85 546.62,-148.6 537.26,-146.36"/>
<polygon fill="black" stroke="black" points="538.07,-142.96 527.53,-144.03 536.44,-149.76 538.07,-142.96"/>
</g>
<!-- aws_instance.master&#45;&gt;data.aws_ami.debian -->
<g id="edge3" class="edge">
<title>aws_instance.master&#45;&gt;data.aws_ami.debian</title>
<path fill="none" stroke="black" d="M378.78,-144.06C359.1,-149.01 337.62,-154.42 317.44,-159.5"/>
<polygon fill="black" stroke="black" points="316.5,-156.13 307.66,-161.96 318.21,-162.91 316.5,-156.13"/>
</g>
<!-- aws_key_pair.k3s -->
<g id="node7" class="node">
<title>aws_key_pair.k3s</title>
<polygon fill="none" stroke="black" points="298,-144 172,-144 172,-108 298,-108 298,-144"/>
<text text-anchor="middle" x="235" y="-122.3" font-family="sans-serif" font-size="14.00">aws_key_pair.k3s</text>
</g>
<!-- aws_instance.master&#45;&gt;aws_key_pair.k3s -->
<g id="edge4" class="edge">
<title>aws_instance.master&#45;&gt;aws_key_pair.k3s</title>
<path fill="none" stroke="black" d="M373.97,-126C352.57,-126 329.38,-126 308.23,-126"/>
<polygon fill="black" stroke="black" points="308.04,-122.5 298.03,-126 308.03,-129.5 308.04,-122.5"/>
</g>
<!-- aws_security_group.k3s -->
<g id="node10" class="node">
<title>aws_security_group.k3s</title>
<polygon fill="none" stroke="black" points="321.5,-90 148.5,-90 148.5,-54 321.5,-54 321.5,-90"/>
<text text-anchor="middle" x="235" y="-68.3" font-family="sans-serif" font-size="14.00">aws_security_group.k3s</text>
</g>
<!-- aws_instance.master&#45;&gt;aws_security_group.k3s -->
<g id="edge5" class="edge">
<title>aws_instance.master&#45;&gt;aws_security_group.k3s</title>
<path fill="none" stroke="black" d="M378.78,-107.94C359.1,-102.99 337.62,-97.58 317.44,-92.5"/>
<polygon fill="black" stroke="black" points="318.21,-89.09 307.66,-90.04 316.5,-95.87 318.21,-89.09"/>
</g>
<!-- aws_subnet.k3s -->
<g id="node11" class="node">
<title>aws_subnet.k3s</title>
<polygon fill="none" stroke="black" points="295.5,-252 174.5,-252 174.5,-216 295.5,-216 295.5,-252"/>
<text text-anchor="middle" x="235" y="-230.3" font-family="sans-serif" font-size="14.00">aws_subnet.k3s</text>
</g>
<!-- aws_instance.master&#45;&gt;aws_subnet.k3s -->
<g id="edge6" class="edge">
<title>aws_instance.master&#45;&gt;aws_subnet.k3s</title>
<path fill="none" stroke="black" d="M388.13,-144.04C383.13,-146.66 378.34,-149.63 374,-153 351.23,-170.71 361.46,-190.22 338,-207 328.28,-213.95 316.89,-219.11 305.31,-222.95"/>
<polygon fill="black" stroke="black" points="304.15,-219.64 295.58,-225.86 306.16,-226.35 304.15,-219.64"/>
</g>
<!-- random_password.k3s_token -->
<g id="node13" class="node">
<title>random_password.k3s_token</title>
<polygon fill="none" stroke="black" points="338,-36 132,-36 132,0 338,0 338,-36"/>
<text text-anchor="middle" x="235" y="-14.3" font-family="sans-serif" font-size="14.00">random_password.k3s_token</text>
</g>
<!-- aws_instance.master&#45;&gt;random_password.k3s_token -->
<g id="edge7" class="edge">
<title>aws_instance.master&#45;&gt;random_password.k3s_token</title>
<path fill="none" stroke="black" d="M430.39,-107.99C408.94,-89.67 373.25,-61.66 338,-45 333.93,-43.08 329.7,-41.27 325.38,-39.59"/>
<polygon fill="black" stroke="black" points="326.41,-36.23 315.81,-36.07 323.99,-42.81 326.41,-36.23"/>
</g>
<!-- aws_instance.worker -->
<g id="node5" class="node">
<title>aws_instance.worker</title>
<polygon fill="none" stroke="black" points="757,-144 602,-144 602,-108 757,-108 757,-144"/>
<text text-anchor="middle" x="679.5" y="-122.3" font-family="sans-serif" font-size="14.00">aws_instance.worker</text>
</g>
<!-- aws_instance.worker&#45;&gt;aws_instance.master -->
<g id="edge8" class="edge">
<title>aws_instance.worker&#45;&gt;aws_instance.master</title>
<path fill="none" stroke="black" d="M601.99,-126C581.85,-126 559.98,-126 539.34,-126"/>
<polygon fill="black" stroke="black" points="539.32,-122.5 529.32,-126 539.32,-129.5 539.32,-122.5"/>
</g>
<!-- aws_internet_gateway.k3s -->
<g id="node6" class="node">
<title>aws_internet_gateway.k3s</title>
<polygon fill="none" stroke="black" points="329.5,-306 140.5,-306 140.5,-270 329.5,-270 329.5,-306"/>
<text text-anchor="middle" x="235" y="-284.3" font-family="sans-serif" font-size="14.00">aws_internet_gateway.k3s</text>
</g>
<!-- aws_vpc.k3s -->
<g id="node12" class="node">
<title>aws_vpc.k3s</title>
<polygon fill="none" stroke="black" points="96,-252 0,-252 0,-216 96,-216 96,-252"/>
<text text-anchor="middle" x="48" y="-230.3" font-family="sans-serif" font-size="14.00">aws_vpc.k3s</text>
</g>
<!-- aws_internet_gateway.k3s&#45;&gt;aws_vpc.k3s -->
<g id="edge9" class="edge">
<title>aws_internet_gateway.k3s&#45;&gt;aws_vpc.k3s</title>
<path fill="none" stroke="black" d="M163.9,-270C153.19,-267.08 142.28,-264.03 132,-261 123.55,-258.51 114.66,-255.76 105.96,-252.99"/>
<polygon fill="black" stroke="black" points="106.85,-249.6 96.26,-249.88 104.71,-256.27 106.85,-249.6"/>
</g>
<!-- aws_route_table.k3s -->
<g id="node8" class="node">
<title>aws_route_table.k3s</title>
<polygon fill="none" stroke="black" points="526,-304 377,-304 377,-268 526,-268 526,-304"/>
<text text-anchor="middle" x="451.5" y="-282.3" font-family="sans-serif" font-size="14.00">aws_route_table.k3s</text>
</g>
<!-- aws_route_table.k3s&#45;&gt;aws_internet_gateway.k3s -->
<g id="edge10" class="edge">
<title>aws_route_table.k3s&#45;&gt;aws_internet_gateway.k3s</title>
<path fill="none" stroke="black" d="M376.98,-286.69C364.92,-286.8 352.23,-286.92 339.61,-287.03"/>
<polygon fill="black" stroke="black" points="339.48,-283.53 329.51,-287.13 339.55,-290.53 339.48,-283.53"/>
</g>
<!-- aws_route_table_association.k3s -->
<g id="node9" class="node">
<title>aws_route_table_association.k3s</title>
<polygon fill="none" stroke="black" points="794,-279 565,-279 565,-243 794,-243 794,-279"/>
<text text-anchor="middle" x="679.5" y="-257.3" font-family="sans-serif" font-size="14.00">aws_route_table_association.k3s</text>
</g>
<!-- aws_route_table_association.k3s&#45;&gt;aws_route_table.k3s -->
<g id="edge11" class="edge">
<title>aws_route_table_association.k3s&#45;&gt;aws_route_table.k3s</title>
<path fill="none" stroke="black" d="M564.84,-273.57C555.15,-274.64 545.47,-275.72 536.08,-276.75"/>
<polygon fill="black" stroke="black" points="535.58,-273.29 526.02,-277.87 536.35,-280.25 535.58,-273.29"/>
</g>
<!-- aws_route_table_association.k3s&#45;&gt;aws_subnet.k3s -->
<g id="edge12" class="edge">
<title>aws_route_table_association.k3s&#45;&gt;aws_subnet.k3s</title>
<path fill="none" stroke="black" d="M564.83,-254.06C483.12,-249.08 375.52,-242.51 306.05,-238.27"/>
<polygon fill="black" stroke="black" points="305.86,-234.76 295.66,-237.64 305.43,-241.74 305.86,-234.76"/>
</g>
<!-- aws_security_group.k3s&#45;&gt;aws_vpc.k3s -->
<g id="edge13" class="edge">
<title>aws_security_group.k3s&#45;&gt;aws_vpc.k3s</title>
<path fill="none" stroke="black" d="M148.45,-89.19C142.63,-91.99 137.07,-95.23 132,-99 95.3,-126.28 71.27,-175.04 58.92,-205.89"/>
<polygon fill="black" stroke="black" points="55.51,-205.02 55.18,-215.61 62.04,-207.54 55.51,-205.02"/>
</g>
<!-- aws_subnet.k3s&#45;&gt;aws_vpc.k3s -->
<g id="edge14" class="edge">
<title>aws_subnet.k3s&#45;&gt;aws_vpc.k3s</title>
<path fill="none" stroke="black" d="M174.45,-234C152.56,-234 127.85,-234 106.18,-234"/>
<polygon fill="black" stroke="black" points="106.13,-230.5 96.13,-234 106.13,-237.5 106.13,-230.5"/>
</g>
</g>
</svg>
